<svg width="129" height="145" viewBox="0 0 129 145" fill="none" xmlns="http://www.w3.org/2000/svg">
<path d="M18.25 145C28.3512 145 36.5 136.814 36.5 126.667V108.333H18.25C8.14884 108.333 0 116.519 0 126.667C0 136.814 8.14884 145 18.25 145ZM0 90C0 79.8527 8.14884 71.6667 18.25 71.6667H36.5V108.333H18.25C8.14884 108.333 0 100.147 0 90ZM0 53.3333C0 43.186 8.14884 35 18.25 35H36.5V71.6667H18.25C8.14884 71.6667 0 63.4806 0 53.3333ZM36.5 35H54.75C64.8512 35 73 43.186 73 53.3333C73 63.4806 64.8512 71.6667 54.75 71.6667H36.5V35ZM73 90C73 100.147 64.8512 108.333 54.75 108.333C44.6488 108.333 36.5 100.147 36.5 90C36.5 79.8527 44.6488 71.6667 54.75 71.6667C64.8512 71.6667 73 79.8527 73 90Z" fill="#5F35D5"/>
<path d="M88.1512 13.3313C88.3473 12.3956 88.908 11.5709 89.71 11.0387C90.5121 10.5065 91.4898 10.3103 92.4282 10.4933L114.949 14.8879C115.887 15.0712 116.709 15.6186 117.234 16.4098C117.759 17.2009 117.944 18.1711 117.748 19.1069L113.047 41.5655C112.837 42.4876 112.273 43.2953 111.475 43.8148C110.677 44.3343 109.711 44.5239 108.783 44.3428C107.855 44.1617 107.04 43.6245 106.514 42.8467C105.988 42.069 105.793 41.113 105.97 40.1846L108.628 26.4179L79.8936 45.4854C79.0914 46.0178 78.1135 46.2139 77.1749 46.0308C76.2364 45.8476 75.4141 45.3002 74.889 44.5088C74.3639 43.7175 74.179 42.7471 74.3749 41.8112C74.5709 40.8752 75.1316 40.0504 75.9338 39.518L104.669 20.4505L90.9508 17.5503C90.0125 17.367 89.1904 16.8196 88.6654 16.0284C88.1404 15.2373 87.9555 14.2671 88.1512 13.3313Z" fill="#5F35D5"/>
</svg>
