<svg width="153" height="139" viewBox="0 0 153 139" fill="none" xmlns="http://www.w3.org/2000/svg">
<path fill-rule="evenodd" clip-rule="evenodd" d="M54.9995 31C24.6281 31 0 55.6226 0 85.9995C0 110.301 15.759 130.916 37.612 138.189C40.3598 138.699 41.369 136.996 41.369 135.544C41.369 134.232 41.318 129.9 41.2943 125.304C25.9934 128.631 22.7647 118.815 22.7647 118.815C20.2628 112.457 16.658 110.767 16.658 110.767C11.667 107.353 17.0341 107.424 17.0341 107.424C22.5561 107.812 25.4651 113.092 25.4651 113.092C30.3705 121.499 38.3316 119.069 41.4701 117.664C41.9637 114.11 43.3891 111.682 44.962 110.309C32.7458 108.92 19.903 104.203 19.903 83.1288C19.903 77.1241 22.0525 72.2178 25.5708 68.3652C24.9988 66.9809 23.1162 61.3869 26.1027 53.8111C26.1027 53.8111 30.7203 52.333 41.2305 59.4488C45.6186 58.2293 50.3246 57.6163 54.9995 57.5954C59.6718 57.6163 64.3805 58.2275 68.7768 59.447C79.2743 52.3311 83.8864 53.8093 83.8864 53.8093C86.8801 61.3842 84.9976 66.979 84.4265 68.3634C87.953 72.216 90.0869 77.1223 90.0869 83.127C90.0869 104.251 77.2205 108.902 64.9734 110.264C66.947 111.971 68.7048 115.319 68.7048 120.449C68.7048 127.808 68.641 133.731 68.641 135.543C68.641 137.006 69.632 138.721 72.4189 138.181C94.2592 130.9 110 110.292 110 85.9995C109.999 55.6245 85.3737 31 54.9995 31Z" fill="#5F35D5"/>
<path d="M20.8311 109.966C20.71 110.24 20.2801 110.322 19.8885 110.135C19.4877 109.956 19.2646 109.584 19.3939 109.31C19.5123 109.027 19.9431 108.95 20.3411 109.139C20.7419 109.318 20.9696 109.694 20.8302 109.967L20.8311 109.966ZM23.0589 112.452C22.7975 112.695 22.2847 112.582 21.9368 112.197C21.5761 111.814 21.5087 111.302 21.7756 111.055C22.047 110.813 22.5443 110.927 22.9049 111.31C23.2638 111.698 23.3348 112.206 23.0598 112.453L23.0589 112.452ZM25.2283 115.619C24.8913 115.854 24.3394 115.634 23.9988 115.145C23.6618 114.655 23.6618 114.068 24.0079 113.834C24.3476 113.599 24.8913 113.811 25.2374 114.295C25.5726 114.792 25.5726 115.38 25.2283 115.619ZM28.1983 118.68C27.8978 119.012 27.2548 118.923 26.7848 118.47C26.3048 118.027 26.171 117.396 26.4724 117.064C26.7784 116.731 27.4242 116.824 27.8969 117.274C28.3768 117.716 28.5217 118.348 28.2002 118.679L28.1983 118.68ZM32.2968 120.457C32.1629 120.887 31.5454 121.083 30.9215 120.899C30.2995 120.711 29.8924 120.207 30.0199 119.772C30.1474 119.337 30.7694 119.134 31.397 119.33C32.019 119.518 32.4261 120.019 32.2968 120.457ZM36.7987 120.785C36.8142 121.239 36.286 121.614 35.6329 121.623C34.9745 121.639 34.4417 121.271 34.4353 120.825C34.4353 120.366 34.9526 119.996 35.6102 119.983C36.2632 119.971 36.7996 120.336 36.7996 120.785L36.7987 120.785ZM40.9864 120.073C41.0648 120.515 40.6103 120.969 39.9609 121.091C39.3234 121.209 38.7314 120.934 38.6494 120.496C38.5711 120.042 39.0338 119.588 39.6713 119.47C40.3216 119.358 40.9045 119.624 40.9864 120.073Z" fill="#5F35D5"/>
<path d="M112.151 13.3313C112.347 12.3956 112.908 11.5709 113.71 11.0387C114.512 10.5065 115.49 10.3103 116.428 10.4933L138.949 14.8879C139.887 15.0712 140.709 15.6186 141.234 16.4098C141.759 17.2009 141.944 18.1711 141.748 19.1069L137.047 41.5655C136.837 42.4876 136.273 43.2953 135.475 43.8148C134.677 44.3343 133.711 44.5239 132.783 44.3428C131.855 44.1617 131.04 43.6245 130.514 42.8467C129.988 42.069 129.793 41.113 129.97 40.1846L132.628 26.4179L103.894 45.4854C103.091 46.0178 102.113 46.2139 101.175 46.0308C100.236 45.8476 99.4141 45.3002 98.889 44.5088C98.3639 43.7175 98.179 42.7471 98.3749 41.8112C98.5709 40.8752 99.1316 40.0504 99.9338 39.518L128.669 20.4505L114.951 17.5503C114.012 17.367 113.19 16.8196 112.665 16.0284C112.14 15.2373 111.955 14.2671 112.151 13.3313Z" fill="#5F35D5"/>
</svg>
