<svg width="121" height="118" viewBox="0 0 121 118" fill="none" xmlns="http://www.w3.org/2000/svg">
<path fill-rule="evenodd" clip-rule="evenodd" d="M60.388 0C27.041 0 0 27.035 0 60.388C0 87.07 17.303 109.705 41.297 117.691C44.314 118.251 45.422 116.381 45.422 114.786C45.422 113.346 45.366 108.589 45.34 103.543C28.54 107.196 24.995 96.418 24.995 96.418C22.248 89.438 18.29 87.582 18.29 87.582C12.81 83.834 18.703 83.912 18.703 83.912C24.766 84.337 27.96 90.135 27.96 90.135C33.346 99.365 42.087 96.697 45.533 95.155C46.075 91.252 47.64 88.587 49.367 87.079C35.954 85.554 21.853 80.375 21.853 57.236C21.853 50.643 24.213 45.256 28.076 41.026C27.448 39.506 25.381 33.364 28.66 25.046C28.66 25.046 33.73 23.423 45.27 31.236C50.088 29.897 55.255 29.224 60.388 29.201C65.518 29.224 70.688 29.895 75.515 31.234C87.041 23.421 92.105 25.044 92.105 25.044C95.392 33.361 93.325 39.504 92.698 41.024C96.57 45.254 98.913 50.641 98.913 57.234C98.913 80.428 84.786 85.534 71.339 87.03C73.506 88.904 75.436 92.58 75.436 98.213C75.436 106.293 75.366 112.796 75.366 114.785C75.366 116.392 76.454 118.275 79.514 117.682C103.494 109.688 120.777 87.06 120.777 60.388C120.776 27.037 93.738 0 60.388 0Z" fill="#5F35D5"/>
<path d="M22.872 86.7029C22.739 87.0029 22.267 87.0929 21.837 86.8879C21.397 86.6919 21.152 86.2829 21.294 85.9819C21.424 85.6719 21.897 85.5869 22.334 85.7939C22.774 85.9909 23.024 86.4039 22.871 86.7039L22.872 86.7029ZM25.318 89.4319C25.031 89.6989 24.468 89.5749 24.086 89.1519C23.69 88.7319 23.616 88.1689 23.909 87.8979C24.207 87.6319 24.753 87.7579 25.149 88.1779C25.543 88.6039 25.621 89.1619 25.319 89.4329L25.318 89.4319ZM27.7 92.9089C27.33 93.1669 26.724 92.9259 26.35 92.3889C25.98 91.8509 25.98 91.2059 26.36 90.9489C26.733 90.6909 27.33 90.9239 27.71 91.4559C28.078 92.0009 28.078 92.6469 27.7 92.9089ZM30.961 96.2699C30.631 96.6349 29.925 96.5369 29.409 96.0399C28.882 95.5529 28.735 94.8599 29.066 94.4959C29.402 94.1299 30.111 94.2319 30.63 94.7259C31.157 95.2119 31.316 95.9059 30.963 96.2689L30.961 96.2699ZM35.461 98.2209C35.314 98.6939 34.636 98.9089 33.951 98.7069C33.268 98.4999 32.821 97.9469 32.961 97.4689C33.101 96.9919 33.784 96.7689 34.473 96.9839C35.156 97.1899 35.603 97.7399 35.461 98.2209ZM40.404 98.5819C40.421 99.0799 39.841 99.4919 39.124 99.5019C38.401 99.5189 37.816 99.1149 37.809 98.6249C37.809 98.1219 38.377 97.7149 39.099 97.7009C39.816 97.6879 40.405 98.0879 40.405 98.5809L40.404 98.5819ZM45.002 97.7999C45.088 98.2849 44.589 98.7839 43.876 98.9169C43.176 99.0469 42.526 98.7449 42.436 98.2639C42.35 97.7659 42.858 97.2669 43.558 97.1379C44.272 97.0149 44.912 97.3069 45.002 97.7999Z" fill="#5F35D5"/>
</svg>
