<svg width="153" height="138" viewBox="0 0 153 138" fill="none" xmlns="http://www.w3.org/2000/svg">
<path d="M105.676 61.5904C102.906 55.0407 98.9407 49.1591 93.8908 44.1092C88.8408 39.0592 82.9593 35.094 76.4095 32.3237C69.6265 29.4547 62.4233 28 54.9999 28C47.5766 28 40.3734 29.4547 33.5904 32.3237C27.0406 35.094 21.1591 39.0592 16.1091 44.1092C11.0591 49.1591 7.09404 55.0407 4.32369 61.5904C1.4547 68.3735 0 75.5767 0 83C0 90.4233 1.4547 97.6265 4.32369 104.41C7.09404 110.959 11.0593 116.841 16.1091 121.891C21.1592 126.941 27.0406 130.906 33.5904 133.676C40.3734 136.545 47.5766 138 54.9999 138C62.4233 138 69.6265 136.545 76.4095 133.676C82.9593 130.906 88.8409 126.941 93.8908 121.891C98.9406 116.841 102.906 110.959 105.676 104.41C108.545 97.6265 110 90.4233 110 83C110 75.5767 108.545 68.3735 105.676 61.5904ZM102.604 79.3694H85.4422C85.2171 72.9632 84.3981 66.7648 83.0347 61.0043C87.087 59.8898 91.0771 58.5295 94.9956 56.9237C96.5412 59.2899 97.8771 61.7918 98.9884 64.4193C101.007 69.1911 102.218 74.2053 102.604 79.3694ZM58.6305 35.8857C60.1695 36.4174 61.6901 37.2876 63.179 38.4912C65.9514 40.7324 68.5824 44.1449 70.7877 48.3597C71.9722 50.6237 73.025 53.0769 73.94 55.6843C68.92 56.6621 63.8102 57.2458 58.6305 57.4316V35.8857ZM46.8207 38.4912C48.3095 37.2876 49.8302 36.4174 51.3691 35.8857V57.4316C46.1894 57.2458 41.0797 56.6621 36.0596 55.6843C36.9747 53.0769 38.0275 50.6237 39.2119 48.3597C41.4172 44.1449 44.0483 40.7324 46.8207 38.4912ZM51.3691 64.6966V79.3694H31.8217C32.0411 73.5239 32.7906 67.8937 34.0231 62.6835C39.7057 63.8278 45.4961 64.5005 51.3691 64.6966ZM51.3691 86.6308V101.304C45.4961 101.5 39.7058 102.172 34.023 103.317C32.7906 98.1066 32.041 92.4764 31.8216 86.6308H51.3691ZM51.3691 108.569V130.115C49.8302 129.583 48.3095 128.713 46.8207 127.509C44.0483 125.268 41.4172 121.855 39.2119 117.64C38.0275 115.377 36.9747 112.923 36.0596 110.316C41.0797 109.338 46.1894 108.754 51.3691 108.569ZM63.179 127.509C61.6901 128.713 60.1695 129.583 58.6305 130.115V108.569C63.8102 108.754 68.92 109.338 73.94 110.316C73.025 112.923 71.9722 115.377 70.7877 117.641C68.5825 121.855 65.9514 125.268 63.179 127.509ZM58.6305 101.304V86.6308H78.1779C77.9585 92.4764 77.209 98.1066 75.9765 103.317C70.2938 102.172 64.5036 101.5 58.6305 101.304ZM58.6305 79.3694V64.6966C64.5036 64.5005 70.2938 63.8278 75.9766 62.6835C77.209 67.8936 77.9586 73.5239 78.178 79.3694H58.6305ZM88.7561 49.2439C89.312 49.7997 89.8523 50.3673 90.3777 50.9459C87.3095 52.1308 84.1956 53.1558 81.0411 54.0207C79.9529 50.8018 78.6771 47.7749 77.2218 44.9933C76.0688 42.7896 74.8264 40.7823 73.502 38.9788C73.5283 38.9898 73.5547 39.0004 73.5808 39.0116C79.265 41.4158 84.3708 44.8585 88.7561 49.2439ZM36.4189 39.0116C36.4452 39.0004 36.4716 38.9898 36.4977 38.9788C35.1734 40.7824 33.9309 42.7897 32.7779 44.9933C31.3226 47.7749 30.0468 50.8018 28.9587 54.0207C25.8042 53.1557 22.6902 52.1308 19.6221 50.9458C20.1474 50.3672 20.6878 49.7995 21.2435 49.2437C25.6289 44.8585 30.7347 41.4158 36.4189 39.0116ZM15.0042 56.9235C18.9225 58.5294 22.9128 59.8898 26.9649 61.0043C25.6016 66.7648 24.7825 72.9632 24.5574 79.3694H7.39612C7.7817 74.2055 8.9929 69.1911 11.0112 64.4193C12.1226 61.7917 13.4586 59.2898 15.0042 56.9235ZM7.39612 86.6308H24.5575C24.7826 93.0371 25.6017 99.2356 26.965 104.996C22.9129 106.11 18.9227 107.471 15.0042 109.077C13.4586 106.71 12.1227 104.208 11.0113 101.581C8.99291 96.809 7.7817 91.7948 7.39612 86.6308ZM21.2435 116.756C20.6877 116.201 20.1473 115.633 19.6219 115.054C22.6901 113.869 25.8041 112.845 28.9585 111.98C30.0468 115.198 31.3225 118.225 32.7778 121.007C33.9308 123.211 35.1732 125.218 36.4976 127.022C36.4713 127.011 36.445 127 36.4188 126.989C30.7347 124.584 25.6291 121.142 21.2435 116.756ZM73.5807 126.989C73.5544 127 73.5281 127.01 73.5019 127.021C74.8263 125.218 76.0687 123.21 77.2217 121.007C78.677 118.225 79.9529 115.198 81.041 111.979C84.1955 112.844 87.3095 113.869 90.3776 115.054C89.8522 115.633 89.3118 116.2 88.756 116.756C84.3708 121.142 79.2649 124.584 73.5807 126.989ZM94.9956 109.077C91.0771 107.471 87.087 106.11 83.0347 104.996C84.3981 99.2354 85.2171 93.0371 85.4422 86.6308H102.604C102.218 91.7948 101.007 96.8092 98.9884 101.581C97.8772 104.208 96.5412 106.71 94.9956 109.077Z" fill="#5F35D5"/>
<path d="M112.151 13.3313C112.347 12.3956 112.908 11.5709 113.71 11.0387C114.512 10.5065 115.49 10.3103 116.428 10.4933L138.949 14.8879C139.887 15.0712 140.709 15.6186 141.234 16.4098C141.759 17.2009 141.944 18.1711 141.748 19.1069L137.047 41.5655C136.837 42.4876 136.273 43.2953 135.475 43.8148C134.677 44.3343 133.711 44.5239 132.783 44.3428C131.855 44.1617 131.04 43.6245 130.514 42.8467C129.988 42.069 129.793 41.113 129.97 40.1846L132.628 26.4179L103.894 45.4854C103.091 46.0178 102.113 46.2139 101.175 46.0308C100.236 45.8476 99.4141 45.3002 98.889 44.5088C98.3639 43.7175 98.179 42.7471 98.3749 41.8112C98.5709 40.8752 99.1316 40.0504 99.9338 39.518L128.669 20.4505L114.951 17.5503C114.012 17.367 113.19 16.8196 112.665 16.0284C112.14 15.2373 111.955 14.2671 112.151 13.3313Z" fill="#5F35D5"/>
</svg>
