<svg width="110" height="110" viewBox="0 0 110 110" fill="none" xmlns="http://www.w3.org/2000/svg">
<path d="M105.676 33.5904C102.906 27.0407 98.9407 21.1591 93.8908 16.1092C88.8408 11.0592 82.9593 7.09404 76.4095 4.32369C69.6265 1.4547 62.4233 0 54.9999 0C47.5766 0 40.3734 1.4547 33.5904 4.32369C27.0406 7.09404 21.1591 11.0592 16.1091 16.1092C11.0591 21.1591 7.09404 27.0407 4.32369 33.5904C1.4547 40.3735 0 47.5767 0 55C0 62.4233 1.4547 69.6265 4.32369 76.4096C7.09404 82.9593 11.0593 88.841 16.1091 93.8908C21.1592 98.9407 27.0406 102.906 33.5904 105.676C40.3734 108.545 47.5766 110 54.9999 110C62.4233 110 69.6265 108.545 76.4095 105.676C82.9593 102.906 88.8409 98.9407 93.8908 93.8908C98.9406 88.8408 102.906 82.9593 105.676 76.4096C108.545 69.6265 110 62.4233 110 55C110 47.5767 108.545 40.3735 105.676 33.5904ZM102.604 51.3694H85.4422C85.2171 44.9632 84.3981 38.7648 83.0347 33.0043C87.087 31.8898 91.0771 30.5295 94.9956 28.9237C96.5412 31.2899 97.8771 33.7918 98.9884 36.4193C101.007 41.1911 102.218 46.2053 102.604 51.3694ZM58.6305 7.88565C60.1695 8.41743 61.6901 9.28759 63.179 10.4912C65.9514 12.7324 68.5824 16.1449 70.7877 20.3597C71.9722 22.6237 73.025 25.0769 73.94 27.6843C68.92 28.6621 63.8102 29.2458 58.6305 29.4316V7.88565ZM46.8207 10.4912C48.3095 9.28759 49.8302 8.41743 51.3691 7.88565V29.4316C46.1894 29.2458 41.0797 28.6621 36.0596 27.6843C36.9747 25.0769 38.0275 22.6237 39.2119 20.3597C41.4172 16.1449 44.0483 12.7324 46.8207 10.4912ZM51.3691 36.6966V51.3694H31.8217C32.0411 45.5239 32.7906 39.8937 34.0231 34.6835C39.7057 35.8278 45.4961 36.5005 51.3691 36.6966ZM51.3691 58.6308V73.3036C45.4961 73.4998 39.7058 74.1724 34.023 75.3167C32.7906 70.1066 32.041 64.4764 31.8216 58.6308H51.3691ZM51.3691 80.5686V102.115C49.8302 101.583 48.3095 100.713 46.8207 99.5089C44.0483 97.2677 41.4172 93.8553 39.2119 89.6404C38.0275 87.3766 36.9747 84.9232 36.0596 82.3159C41.0797 81.338 46.1894 80.7543 51.3691 80.5686ZM63.179 99.5089C61.6901 100.713 60.1695 101.583 58.6305 102.115V80.5686C63.8102 80.7544 68.92 81.3381 73.94 82.316C73.025 84.9233 71.9722 87.3766 70.7877 89.6406C68.5825 93.8553 65.9514 97.2678 63.179 99.5089ZM58.6305 73.3036V58.6308H78.1779C77.9585 64.4764 77.209 70.1066 75.9765 75.3167C70.2938 74.1723 64.5036 73.4997 58.6305 73.3036ZM58.6305 51.3694V36.6966C64.5036 36.5005 70.2938 35.8278 75.9766 34.6835C77.209 39.8936 77.9586 45.5239 78.178 51.3694H58.6305ZM88.7561 21.2439C89.312 21.7997 89.8523 22.3673 90.3777 22.9459C87.3095 24.1308 84.1956 25.1558 81.0411 26.0207C79.9529 22.8018 78.6771 19.7749 77.2218 16.9933C76.0688 14.7896 74.8264 12.7823 73.502 10.9788C73.5283 10.9898 73.5547 11.0004 73.5808 11.0116C79.265 13.4158 84.3708 16.8585 88.7561 21.2439ZM36.4189 11.0116C36.4452 11.0004 36.4716 10.9898 36.4977 10.9788C35.1734 12.7824 33.9309 14.7897 32.7779 16.9933C31.3226 19.7749 30.0468 22.8018 28.9587 26.0207C25.8042 25.1557 22.6902 24.1308 19.6221 22.9458C20.1474 22.3672 20.6878 21.7995 21.2435 21.2437C25.6289 16.8585 30.7347 13.4158 36.4189 11.0116ZM15.0042 28.9235C18.9225 30.5294 22.9128 31.8898 26.9649 33.0043C25.6016 38.7648 24.7825 44.9632 24.5574 51.3694H7.39612C7.7817 46.2055 8.9929 41.1911 11.0112 36.4193C12.1226 33.7917 13.4586 31.2898 15.0042 28.9235ZM7.39612 58.6308H24.5575C24.7826 65.0371 25.6017 71.2356 26.965 76.9959C22.9129 78.1103 18.9227 79.4707 15.0042 81.0766C13.4586 78.7105 12.1227 76.2084 11.0113 73.581C8.99291 68.809 7.7817 63.7948 7.39612 58.6308ZM21.2435 88.7564C20.6877 88.2005 20.1473 87.6329 19.6219 87.0543C22.6901 85.8695 25.8041 84.8445 28.9585 83.9796C30.0468 87.1984 31.3225 90.2254 32.7778 93.007C33.9308 95.2107 35.1732 97.218 36.4976 99.0216C36.4713 99.0106 36.445 98.9999 36.4188 98.9888C30.7347 96.5844 25.6291 93.1418 21.2435 88.7564ZM73.5807 98.9886C73.5544 98.9997 73.5281 99.0102 73.5019 99.0214C74.8263 97.2177 76.0687 95.2104 77.2217 93.0067C78.677 90.2251 79.9529 87.1982 81.041 83.9793C84.1955 84.8443 87.3095 85.8692 90.3776 87.0541C89.8522 87.6327 89.3118 88.2003 88.756 88.7561C84.3708 93.1418 79.2649 96.5844 73.5807 98.9886ZM94.9956 81.0766C91.0771 79.4707 87.087 78.1103 83.0347 76.9959C84.3981 71.2354 85.2171 65.0371 85.4422 58.6308H102.604C102.218 63.7948 101.007 68.8092 98.9884 73.581C97.8772 76.2084 96.5412 78.7105 94.9956 81.0766Z" fill="#5F35D5"/>
</svg>
