<svg width="18" height="18" viewBox="0 0 18 18" fill="none" xmlns="http://www.w3.org/2000/svg">
<path d="M15.0049 8.50928L15.0636 13.9566L11.5674 10.4444L15.0049 8.50928Z" fill="#6E49E1"/>
<path d="M2.68994 8.61288L2.71113 3.16528L6.15549 6.72833L2.68994 8.61288Z" fill="#6E49E1"/>
<path d="M15.0046 2.50903H13.0046V9.50903H15.0046V2.50903Z" fill="#6E49E1"/>
<path d="M2.60202 14.6123L4.60181 14.6416L4.70431 7.64235L2.70452 7.61307L2.60202 14.6123Z" fill="#6E49E1"/>
<path d="M3.98797 0.0270581L2.54883 1.4729L12.2056 11.0849L13.6447 9.63907L3.98797 0.0270581Z" fill="#6E49E1"/>
<path d="M13.5813 17.2554L15.0415 15.8308L5.52655 6.07843L4.06638 7.50304L13.5813 17.2554Z" fill="#6E49E1"/>
<path d="M2.58124 1.50932L1.00464 0.000488281L4.00461 0.00909806L2.58124 1.50932Z" fill="#6E49E1"/>
<path d="M15.0097 15.7939L16.564 17.3257L13.5645 17.2731L15.0097 15.7939Z" fill="#6E49E1"/>
</svg>
